# Blender 5.0.1
# www.blender.org
mtllib cable_item.mtl
o Core
v -0.156250 -0.156250 -0.093750
v -0.156250 -0.156250 0.093750
v -0.093750 -0.156250 0.156250
v 0.093750 -0.156250 0.156250
v 0.156250 -0.156250 0.093750
v 0.156250 -0.156250 -0.093750
v 0.093750 -0.156250 -0.156250
v -0.093750 -0.156250 -0.156250
v -0.156250 0.156250 -0.093750
v -0.156250 0.156250 0.093750
v -0.093750 0.156250 0.156250
v 0.093750 0.156250 0.156250
v 0.156250 0.156250 0.093750
v 0.156250 0.156250 -0.093750
v 0.093750 0.156250 -0.156250
v -0.093750 0.156250 -0.156250
v 0.156250 -0.093750 -0.156250
v 0.156250 0.093750 -0.156250
v 0.156250 0.093750 0.156250
v 0.156250 -0.093750 0.156250
v -0.156250 -0.093750 0.156250
v -0.156250 0.093750 0.156250
v -0.156250 0.093750 -0.156250
v -0.156250 -0.093750 -0.156250
vn -0.5774 -0.5774 0.5774
vn 0.5774 -0.5774 0.5774
vn -0.5774 0.5774 0.5774
vn 0.5774 0.5774 0.5774
vn -0.5774 -0.5774 -0.5774
vn 0.5774 -0.5774 -0.5774
vn 0.5774 0.5774 -0.5774
vn -0.5774 0.5774 -0.5774
vn -0.0000 -1.0000 -0.0000
vn -0.0000 -0.0000 -1.0000
vn -1.0000 -0.0000 -0.0000
vn 1.0000 -0.0000 -0.0000
vn -0.0000 1.0000 -0.0000
vn -0.0000 -0.0000 1.0000
vt 0.250000 0.062500
vt 0.250000 -0.000000
vt 0.312500 0.000000
vt 0.312500 0.312500
vt 0.250000 0.312500
vt 0.250000 0.250000
vt 0.562500 0.062500
vt 0.500000 0.000000
vt 0.562500 -0.000000
vt 0.562500 0.250000
vt 0.562500 0.312500
vt 0.500000 0.312500
s 1
usemtl core
f 3/1/1 21/2/1 2/3/1
f 5/4/2 20/5/2 4/6/2
f 11/3/3 10/1/3 22/2/3
f 13/7/4 12/8/4 19/9/4
f 8/7/5 1/8/5 24/9/5
f 7/10/6 17/11/6 6/12/6
f 15/12/7 14/10/7 18/11/7
f 16/4/8 23/5/8 9/6/8
f 1/8/9 7/10/9 5/4/9
f 8/10/10 23/4/10 15/1/10
f 22/4/11 9/1/11 24/8/11
f 5/6/12 17/3/12 14/7/12
f 14/10/13 16/4/13 10/1/13
f 3/6/14 20/3/14 12/7/14
f 5/4/9 4/6/9 3/1/9
f 3/1/9 2/3/9 1/8/9
f 1/8/9 8/7/9 7/10/9
f 7/10/9 6/12/9 5/4/9
f 5/4/9 3/1/9 1/8/9
f 15/1/10 18/3/10 17/8/10
f 17/8/10 7/7/10 8/10/10
f 8/10/10 24/12/10 23/4/10
f 23/4/10 16/6/10 15/1/10
f 15/1/10 17/8/10 8/10/10
f 24/8/11 1/7/11 2/10/11
f 2/10/11 21/12/11 22/4/11
f 22/4/11 10/6/11 9/1/11
f 9/1/11 23/3/11 24/8/11
f 24/8/11 2/10/11 22/4/11
f 14/7/12 13/10/12 19/12/12
f 19/12/12 20/4/12 5/6/12
f 5/6/12 6/1/12 17/3/12
f 17/3/12 18/8/12 14/7/12
f 14/7/12 19/12/12 5/6/12
f 10/1/13 11/3/13 12/8/13
f 12/8/13 13/7/13 14/10/13
f 14/10/13 15/12/13 16/4/13
f 16/4/13 9/6/13 10/1/13
f 10/1/13 12/8/13 14/10/13
f 12/7/14 11/10/14 22/12/14
f 22/12/14 21/4/14 3/6/14
f 3/6/14 4/1/14 20/3/14
f 20/3/14 19/8/14 12/7/14
f 12/7/14 22/12/14 3/6/14
